# xmcd
#
# Track frame offsets: 
#        182
#        17537
#        31687
#        58530
#        75617
#        92565
#        108942
#        123012
#        136092
#        150980
#        163110
#        185522
#        205910
#        221337
#        237392
#        252587
#        268215
#        283362
#        299047
#        311522
#
# Disc length: 4389 seconds
#
# Revision: 0
# Processed by: cddbd v1.5.2PL0 Copyright (c) Steve Scherf et al.
# Submitted via: ExactAudioCopy v0.99pb4
#
DISCID=19112314
DTITLE=Various Artist - The Best Reggae Album In The World...Ever! Pa
DTITLE=rt 2 [CD2]
DYEAR=1994
DGENRE=Reggae
TTITLE0=Janet Kay - Silly Games
TTITLE1=Sophia George - Girlie Girlie
TTITLE2=Eddy Grant - Living On The Front Line
TTITLE3=Ace Of Base - Don't Turn Around
TTITLE4=Summit - Yummy Yummy
TTITLE5=Bitty McLean - Here I Stand
TTITLE6=The Locomotive - Rudi's In Love
TTITLE7=The Specials - A Message To You Rudy
TTITLE8=Madness - The Prince
TTITLE9=The Beat - Tears Of A Clown
TTITLE10=The Police - Walking On The Moon
TTITLE11=Blondie - The Tide Is High
TTITLE12=Inner Circle - Games People Play
TTITLE13=Duke Baysee - Sugar Sugar
TTITLE14=Musical Youth - Pass The Dutchie
TTITLE15=JC 001 - Cupid
TTITLE16=Paul Davidson - Midnight Rider
TTITLE17=Bad Manners - Walking In The Sunshine
TTITLE18=Harry J Allstars - Liquidator
TTITLE19=Boy George - Everything I Own
EXTD=
EXTT0=
EXTT1=
EXTT2=
EXTT3=
EXTT4=
EXTT5=
EXTT6=
EXTT7=
EXTT8=
EXTT9=
EXTT10=
EXTT11=
EXTT12=
EXTT13=
EXTT14=
EXTT15=
EXTT16=
EXTT17=
EXTT18=
EXTT19=
PLAYORDER=
